<?xml version="1.0" standalone="no"?>
<!DOCTYPE svg PUBLIC "-//W3C//DTD SVG 20010904//EN"
 "http://www.w3.org/TR/2001/REC-SVG-20010904/DTD/svg10.dtd">
<svg version="1.0" xmlns="http://www.w3.org/2000/svg"
 width="800.000000pt" height="800.000000pt" viewBox="0 0 800.000000 800.000000"
 preserveAspectRatio="xMidYMid meet">
<metadata>
Created by potrace 1.13, written by Peter Selinger 2001-2015
</metadata>
<g transform="translate(0.000000,800.000000) scale(0.100000,-0.100000)"
fill="#000000" stroke="none">
<path d="M1682 6344 c-231 -231 -380 -422 -529 -678 -253 -431 -404 -915 -440
-1408 -13 -182 -7 -492 12 -633 15 -105 36 -239 39 -244 2 -3 7 -24 10 -46 21
-136 106 -408 187 -598 209 -489 459 -833 891 -1225 l27 -25 173 172 172 173
-79 71 c-375 335 -649 745 -807 1207 -26 76 -85 293 -94 345 -45 265 -49 316
-49 565 1 215 3 253 31 430 97 635 433 1243 923 1671 l52 46 -159 159 c-87 87
-166 165 -175 173 -15 12 -36 -5 -185 -155z"/>
<path d="M5971 6339 l-172 -171 63 -57 c529 -471 867 -1132 935 -1824 10 -100
9 -477 -1 -567 -6 -58 -13 -105 -31 -205 -108 -618 -435 -1193 -920 -1621
l-70 -62 173 -173 172 -172 23 20 c210 190 325 312 460 486 177 227 326 480
439 747 64 150 157 446 182 580 2 14 9 48 15 75 10 48 13 66 27 165 3 25 8 56
10 70 23 138 22 681 0 751 -3 8 -7 39 -10 69 -18 167 -81 437 -150 638 -62
179 -173 416 -294 624 -129 224 -421 574 -623 749 l-57 49 -171 -171z"/>
<path d="M2644 5613 c-252 -210 -476 -521 -599 -831 -35 -90 -82 -240 -91
-292 -3 -14 -7 -33 -10 -42 -9 -29 -20 -94 -29 -169 -2 -19 -7 -58 -10 -88
-12 -98 -5 -403 10 -461 3 -8 7 -33 10 -55 2 -22 7 -49 9 -60 98 -475 343
-896 696 -1195 35 -30 71 -61 78 -68 7 -6 16 -12 19 -12 14 0 344 341 338 350
-3 6 -32 29 -63 52 -31 23 -95 80 -142 127 -83 84 -210 240 -210 260 0 5 -3
11 -7 13 -25 11 -130 228 -173 357 -76 227 -99 433 -77 671 23 251 110 497
253 716 103 158 211 275 382 411 l23 18 -174 173 -174 174 -59 -49z"/>
<path d="M5122 5487 l-173 -173 61 -48 c208 -164 391 -410 490 -660 35 -88 78
-233 86 -286 3 -19 7 -41 10 -49 16 -49 23 -338 10 -446 -52 -425 -274 -820
-613 -1088 -35 -27 -63 -51 -63 -54 0 -3 77 -82 170 -175 153 -153 172 -169
188 -157 107 83 265 239 354 349 128 158 266 404 337 600 32 89 83 270 76 270
-3 0 -1 10 4 23 5 13 12 48 16 77 4 29 8 61 10 72 15 78 22 340 11 436 -3 26
-8 72 -11 102 -6 55 -34 201 -49 255 -22 82 -32 113 -58 185 -101 281 -288
572 -503 783 -58 57 -170 157 -176 157 -2 0 -82 -78 -177 -173z"/>
<path d="M3843 4601 c-140 -38 -242 -106 -332 -220 -95 -122 -132 -240 -127
-405 2 -88 8 -125 28 -178 71 -189 219 -333 403 -391 101 -32 282 -31 376 1
124 43 229 119 306 222 91 123 124 232 119 394 -4 126 -23 191 -85 296 -69
115 -186 214 -307 259 -76 29 -97 33 -209 37 -77 3 -117 0 -172 -15z"/>
</g>
</svg>
